<svg id="Layer_2" data-name="Layer 2" xmlns="http://www.w3.org/2000/svg" viewBox="0 0 468 468"><defs><style>.cls-1{fill:#fff;}.cls-2{fill:#00a651;}.cls-3{fill:#dedddd;}.cls-11,.cls-4,.cls-6,.cls-8,.cls-9{fill:none;}.cls-4{stroke:#00652e;}.cls-11,.cls-4,.cls-6,.cls-9{stroke-miterlimit:10;}.cls-5{fill:#fcee2b;}.cls-6{stroke:#908b17;}.cls-7{fill:#aaacd6;}.cls-8,.cls-9{stroke:#2e3192;}.cls-8{stroke-linecap:round;stroke-linejoin:round;}.cls-10{fill:#de584b;}.cls-11{stroke:#ed1c24;}</style></defs><title>this copy</title><rect class="cls-1" width="468" height="468"/><polygon class="cls-2" points="216 324 180 360 216 396 180 432 72 432 72 396 144 396 108 360 144 324 72 324 72 288 180 288 216 324"/><polygon class="cls-3" points="180 288 72 288 36 252 144 252 180 288"/><polygon class="cls-3" points="144 324 108 360 72 324 144 324"/><polygon class="cls-3" points="144 396 72 396 36 360 108 360 144 396"/><polygon class="cls-3" points="72 396 72 432 36 396 36 360 72 396"/><polygon class="cls-3" points="72 288 72 324 36 288 36 252 72 288"/><line class="cls-4" x1="144" y1="252" x2="180" y2="288"/><line class="cls-4" x1="36" y1="252" x2="144" y2="252"/><line class="cls-4" x1="36" y1="252" x2="72" y2="288"/><line class="cls-4" x1="180" y1="288" x2="72" y2="288"/><line class="cls-4" x1="180" y1="288" x2="216" y2="324"/><line class="cls-4" x1="72" y1="288" x2="72" y2="324"/><line class="cls-4" x1="216" y1="324" x2="180" y2="360"/><line class="cls-4" x1="216" y1="396" x2="180" y2="360"/><line class="cls-4" x1="180" y1="432" x2="216" y2="396"/><line class="cls-4" x1="72" y1="324" x2="144" y2="324"/><line class="cls-4" x1="108" y1="360" x2="144" y2="324"/><line class="cls-4" x1="144" y1="396" x2="108" y2="360"/><line class="cls-4" x1="72" y1="396" x2="144" y2="396"/><line class="cls-4" x1="72" y1="432" x2="72" y2="396"/><line class="cls-4" x1="180" y1="432" x2="72" y2="432"/><line class="cls-4" x1="72" y1="432" x2="36" y2="396"/><line class="cls-4" x1="36" y1="252" x2="36" y2="288"/><line class="cls-4" x1="36" y1="396" x2="36" y2="360"/><line class="cls-4" x1="36" y1="360" x2="72" y2="396"/><polyline class="cls-4" points="36 288 72 324 108 360"/><line class="cls-4" x1="36" y1="360" x2="108" y2="360"/><rect class="cls-3" x="334.54" y="334.54" width="50.91" height="50.91" transform="translate(-149.12 360) rotate(-45)"/><polygon class="cls-3" points="396 288 324 288 288 252 360 252 396 288"/><rect class="cls-3" x="262.54" y="262.54" width="50.91" height="50.91" transform="translate(-119.29 288) rotate(-45)"/><polygon class="cls-3" points="288 324 288 396 252 360 252 288 288 324"/><path class="cls-5" d="M432,324v72l-36,36H324l-36-36V324l36-36h72Zm-72,72,36-36-36-36-36,36Z"/><line class="cls-6" x1="288" y1="252" x2="324" y2="288"/><line class="cls-6" x1="396" y1="288" x2="324" y2="288"/><line class="cls-6" x1="288" y1="252" x2="360" y2="252"/><line class="cls-6" x1="396" y1="288" x2="360" y2="252"/><line class="cls-6" x1="324" y1="288" x2="288" y2="324"/><line class="cls-6" x1="288" y1="252" x2="252" y2="288"/><line class="cls-6" x1="252" y1="288" x2="252" y2="360"/><line class="cls-6" x1="252" y1="288" x2="288" y2="324"/><polyline class="cls-6" points="252 360 288 396 324 432"/><line class="cls-6" x1="288" y1="324" x2="288" y2="396"/><line class="cls-6" x1="324" y1="432" x2="396" y2="432"/><line class="cls-6" x1="396" y1="432" x2="432" y2="396"/><line class="cls-6" x1="432" y1="324" x2="432" y2="396"/><line class="cls-6" x1="396" y1="288" x2="432" y2="324"/><line class="cls-6" x1="360" y1="324" x2="324" y2="360"/><line class="cls-6" x1="360" y1="396" x2="324" y2="360"/><line class="cls-6" x1="360" y1="324" x2="396" y2="360"/><line class="cls-6" x1="360" y1="396" x2="396" y2="360"/><polygon class="cls-3" points="216 72 177 72 144 36 180 36 216 72"/><polygon class="cls-3" points="144 36 177 72 141 108 108 72 144 36"/><rect class="cls-3" x="39.09" y="136.54" width="101.82" height="50.91" transform="translate(-88.19 111.09) rotate(-45)"/><polygon class="cls-3" points="75 36 108 72 72 72 36 36 75 36"/><polygon class="cls-7" points="216 72 144 144 108 108 72 72 108 72 141 108 177 72 216 72"/><polygon class="cls-7" points="216 216 177 216 144 180 108 216 72 216 144 144 216 216"/><line class="cls-8" x1="72" y1="72" x2="108" y2="72"/><polyline class="cls-8" points="72 72 108 108 144 144"/><line class="cls-8" x1="144" y1="144" x2="72" y2="216"/><line class="cls-8" x1="72" y1="216" x2="108" y2="216"/><line class="cls-8" x1="108" y1="216" x2="144" y2="180"/><line class="cls-8" x1="108" y1="72" x2="141" y2="108"/><line class="cls-8" x1="141" y1="108" x2="177" y2="72"/><line class="cls-8" x1="144" y1="180" x2="177" y2="216"/><line class="cls-8" x1="177" y1="72" x2="216" y2="72"/><line class="cls-8" x1="144" y1="144" x2="216" y2="72"/><line class="cls-8" x1="177" y1="216" x2="216" y2="216"/><line class="cls-8" x1="144" y1="144" x2="216" y2="216"/><line class="cls-9" x1="216" y1="72" x2="180" y2="36"/><line class="cls-9" x1="177" y1="72" x2="144" y2="36"/><line class="cls-9" x1="180" y1="36" x2="144" y2="36"/><line class="cls-9" x1="108" y1="72" x2="75" y2="36"/><line class="cls-9" x1="72" y1="72" x2="36" y2="36"/><line class="cls-9" x1="75" y1="36" x2="36" y2="36"/><line class="cls-9" x1="144" y1="36" x2="108" y2="72"/><line class="cls-9" x1="72" y1="216" x2="36" y2="180"/><line class="cls-9" x1="108" y1="108" x2="36" y2="180"/><polygon class="cls-10" points="432 72 360 144 324 108 288 72 324 72 360 108 396 72 432 72"/><polygon class="cls-3" points="432 72 396 72 360 36 396 36 432 72"/><rect class="cls-3" x="334.54" y="46.54" width="50.91" height="50.91" transform="translate(54.53 275.65) rotate(-45)"/><polygon class="cls-3" points="360 144 360 216 324 180 324 108 360 144"/><polygon class="cls-3" points="324 72 288 72 252 36 288 36 324 72"/><line class="cls-11" x1="324" y1="72" x2="288" y2="72"/><polyline class="cls-11" points="288 72 324 108 360 144"/><line class="cls-11" x1="324" y1="72" x2="360" y2="108"/><line class="cls-11" x1="396" y1="72" x2="360" y2="108"/><line class="cls-11" x1="432" y1="72" x2="396" y2="72"/><line class="cls-11" x1="360" y1="144" x2="432" y2="72"/><line class="cls-11" x1="360" y1="144" x2="360" y2="216"/><line class="cls-11" x1="432" y1="72" x2="396" y2="36"/><line class="cls-11" x1="396" y1="72" x2="360" y2="36"/><line class="cls-11" x1="324" y1="72" x2="288" y2="36"/><line class="cls-11" x1="288" y1="72" x2="252" y2="36"/><line class="cls-11" x1="288" y1="36" x2="252" y2="36"/><line class="cls-11" x1="360" y1="36" x2="396" y2="36"/><line class="cls-11" x1="324" y1="72" x2="360" y2="36"/><line class="cls-11" x1="360" y1="216" x2="324" y2="180"/><line class="cls-11" x1="324" y1="108" x2="324" y2="180"/></svg>